<svg width="45" height="47" viewBox="0 0 45 47" fill="none" xmlns="http://www.w3.org/2000/svg">
<path d="M22.5 0C10.08 0 0 10.3212 0 23.0384C0 35.7556 10.08 46.0769 22.5 46.0769C34.92 46.0769 45 35.7556 45 23.0384C45 10.3212 34.92 0 22.5 0ZM34.3125 23.7987C34.3125 24.7433 33.5475 25.5266 32.625 25.5266C31.7025 25.5266 30.9375 24.7433 30.9375 23.7987V16.8411L13.5675 34.6268C13.23 34.9723 12.8025 35.1336 12.375 35.1336C11.9475 35.1336 11.52 34.9723 11.1825 34.6268C10.53 33.9586 10.53 32.8528 11.1825 32.1847L28.5525 14.399H21.7575C20.835 14.399 20.07 13.6157 20.07 12.6711C20.07 11.7266 20.835 10.9433 21.7575 10.9433H32.625C33.5475 10.9433 34.3125 11.7266 34.3125 12.6711V23.7987Z" fill="#DFDFDF"/>
</svg>
